# xmcd
#
# Track frame offsets:
#	150
#	7687
#	20210
#	34123
#	51066
#	67127
#	85153
#	119366
#	143939
#	150458
#	167755
#	184641
#	199842
#	217209
#	229956
#	260530
#	276227
#	295595
#	311920
#
# Disc length: 4282
#
# Revision: 2
# Processed by: cddbd v1.5.1PL0 Copyright (c) Steve Scherf et al.
# Submitted via: audiograbber 1.80
# Normalized: r1:TRMNUM
#
DISCID=1a10b813
DTITLE=Banda Calypso - Ao vivo na Festa do Boi
DYEAR=1900
DGENRE=
TTITLE0=Vendaval
TTITLE1=Dançando Calypso
TTITLE2=Sereia
TTITLE3=Deusa da Paixão
TTITLE4=Solidão
TTITLE5=Sonho Com Você
TTITLE6=Loirinha
TTITLE7=Senhorita
TTITLE8=Lambada
TTITLE9=Amor nas Estrelas
TTITLE10=Anjo do Prazer
TTITLE11=Volta Pro Meu Coração
TTITLE12=Dormir na Praça
TTITLE13=De Camisinha
TTITLE14=Puot-Pourri - Carimbó
TTITLE15=Dois Corações
TTITLE16=Disse Adeus
TTITLE17=Laço Aberto
TTITLE18=Brinquedo de Amor
EXTD=
EXTT0=
EXTT1=
EXTT2=
EXTT3=
EXTT4=
EXTT5=
EXTT6=
EXTT7=
EXTT8=
EXTT9=
EXTT10=
EXTT11=
EXTT12=
EXTT13=
EXTT14=
EXTT15=
EXTT16=
EXTT17=
EXTT18=
PLAYORDER=
